<svg width="24" height="24" viewBox="0 0 24 24" fill="none" xmlns="http://www.w3.org/2000/svg">
<path d="M22.125 0H1.875C0.839 0 0 0.84 0 1.875V22.125C0 23.161 0.84 24 1.875 24H22.125C23.161 24 24 23.16 24 22.125V1.875C24 0.839 23.16 0 22.125 0ZM12 18.75C11.409 18.75 10.83 18.709 10.268 18.63C9.706 19.026 6.455 21.309 6.148 21.352C6.148 21.352 6.023 21.401 5.916 21.338C5.809 21.275 5.828 21.109 5.828 21.109C5.86 20.889 6.671 18.091 6.82 17.576C4.075 16.216 2.25 13.807 2.25 11.063C2.25 6.817 6.615 3.375 12 3.375C17.385 3.375 21.75 6.817 21.75 11.063C21.75 15.308 17.385 18.75 12 18.75ZM8.05 9.867H7.172V13.209C7.172 13.505 6.92 13.746 6.609 13.746C6.298 13.746 6.047 13.506 6.047 13.209V9.867H5.169C5.03002 9.85673 4.90006 9.79428 4.80522 9.69217C4.71038 9.59006 4.65767 9.45586 4.65767 9.3165C4.65767 9.17714 4.71038 9.04294 4.80522 8.94083C4.90006 8.83872 5.03002 8.77627 5.169 8.766H8.049C8.18798 8.77627 8.31794 8.83872 8.41278 8.94083C8.50762 9.04294 8.56033 9.17714 8.56033 9.3165C8.56033 9.45586 8.50762 9.59006 8.41278 9.69217C8.31794 9.79428 8.18798 9.85673 8.049 9.867H8.05ZM19.037 12.824C19.0819 12.8828 19.1147 12.95 19.1334 13.0216C19.1521 13.0931 19.1564 13.1677 19.146 13.241C19.1357 13.3141 19.1111 13.3844 19.0735 13.4479C19.0359 13.5114 18.9861 13.5668 18.927 13.611C18.8299 13.685 18.7111 13.7251 18.589 13.725C18.5017 13.7255 18.4155 13.7054 18.3373 13.6665C18.2592 13.6276 18.1913 13.5709 18.139 13.501L16.82 11.754L16.625 11.949V13.176C16.6247 13.3251 16.5655 13.468 16.4602 13.5735C16.3549 13.679 16.2121 13.7385 16.063 13.739C15.9137 13.739 15.7705 13.6797 15.6649 13.5741C15.5593 13.4685 15.5 13.3253 15.5 13.176V9.328C15.5061 9.18292 15.5681 9.04581 15.6729 8.94532C15.7777 8.84483 15.9173 8.78872 16.0625 8.78872C16.2077 8.78872 16.3473 8.84483 16.4521 8.94532C16.5569 9.04581 16.6189 9.18292 16.625 9.328V10.538L18.195 8.968C18.236 8.92754 18.2846 8.89558 18.3379 8.87396C18.3913 8.85234 18.4484 8.84148 18.506 8.842C18.646 8.842 18.788 8.903 18.894 9.009C18.9905 9.10362 19.0492 9.2302 19.059 9.365C19.0642 9.42772 19.0558 9.49083 19.0344 9.55002C19.013 9.60921 18.9791 9.66309 18.935 9.708L17.653 10.989L19.038 12.824H19.037ZM10.687 9.322C10.592 9.052 10.304 8.774 9.937 8.766C9.571 8.774 9.283 9.052 9.188 9.321L7.843 12.862C7.672 13.392 7.821 13.59 7.976 13.662C8.08809 13.713 8.20985 13.7393 8.333 13.739C8.568 13.739 8.747 13.644 8.801 13.491L9.08 12.761H10.795L11.074 13.491C11.128 13.644 11.307 13.739 11.542 13.739C11.6652 13.7389 11.787 13.7123 11.899 13.661C12.054 13.59 12.203 13.393 12.032 12.861L10.687 9.321V9.322ZM9.376 11.765L9.938 10.169L10.499 11.765H9.376ZM15.281 13.148C15.2779 13.2879 15.2193 13.4208 15.1183 13.5175C15.0172 13.6143 14.8819 13.6669 14.742 13.664H12.938C12.8687 13.6656 12.7997 13.6535 12.735 13.6284C12.6703 13.6034 12.6112 13.5658 12.5611 13.5179C12.5109 13.47 12.4707 13.4126 12.4427 13.3492C12.4148 13.2857 12.3996 13.2173 12.398 13.148V9.328C12.398 9.018 12.656 8.766 12.973 8.766C13.29 8.766 13.547 9.018 13.547 9.328V12.633H14.742C15.039 12.633 15.282 12.864 15.282 13.148H15.281Z" fill="#8A64EA"/>
</svg>
